<svg width="15" height="14" viewBox="0 0 15 14" fill="none" xmlns="http://www.w3.org/2000/svg">
<path fill-rule="evenodd" clip-rule="evenodd" d="M1 2.53257V11.4674C1 12.2337 1.73916 13 2.60023 13H12.3998C12.8036 13 13.2456 12.8084 13.5047 12.5479C13.7638 12.2874 14 11.8812 14 11.4674V2.53257C14 2.09579 13.7333 1.68966 13.5123 1.45977C13.2837 1.22989 12.8646 1 12.3998 1H2.60023C2.15064 1 1.72392 1.22222 1.49531 1.45211C1.27433 1.68199 1 2.08812 1 2.53257Z" stroke="white"/>
<path fill-rule="evenodd" clip-rule="evenodd" d="M6.94336 11.3525C6.94336 11.4062 6.9586 11.4292 7.01956 11.4292H10.7992C11.1268 11.4292 11.3097 11.2376 11.3097 10.9157V9.71268C11.3097 9.44448 11.1649 9.22992 10.9058 9.22992H6.94336V11.3525Z" fill="white"/>
<path fill-rule="evenodd" clip-rule="evenodd" d="M3.68945 6.44831V7.64371C3.68945 7.97321 3.87234 8.15712 4.2 8.15712H5.87644V5.95789H4.09332C3.83424 5.95789 3.68945 6.18011 3.68945 6.44831Z" fill="white"/>
<path fill-rule="evenodd" clip-rule="evenodd" d="M6.94336 8.08049C6.94336 8.14179 6.9586 8.15712 7.01956 8.15712H10.7992C11.1268 8.15712 11.3097 7.97321 11.3097 7.64371V6.44831C11.3097 6.18011 11.1649 5.95789 10.9058 5.95789H6.94336V8.08049Z" fill="white"/>
<path fill-rule="evenodd" clip-rule="evenodd" d="M3.68945 9.71268V10.9157C3.68945 11.2376 3.87234 11.4292 4.2 11.4292H5.87644V9.22992H4.09332C3.83424 9.22992 3.68945 9.44448 3.68945 9.71268Z" fill="white"/>
<path fill-rule="evenodd" clip-rule="evenodd" d="M6.94336 4.6935C6.94336 4.7548 6.9586 4.77013 7.01956 4.77013H10.7992C11.1268 4.77013 11.3097 4.58622 11.3097 4.25672V3.06131C11.3097 2.79311 11.1649 2.57089 10.9058 2.57089H6.94336V4.6935Z" fill="white"/>
<path fill-rule="evenodd" clip-rule="evenodd" d="M3.68945 3.06131V4.25672C3.68945 4.58622 3.87234 4.77013 4.2 4.77013H5.87644V2.57089H4.09332C3.83424 2.57089 3.68945 2.79311 3.68945 3.06131Z" fill="white"/>
</svg>
