<svg width="13" height="12" viewBox="0 0 13 12" fill="none" xmlns="http://www.w3.org/2000/svg">
<path fill-rule="evenodd" clip-rule="evenodd" d="M0 0.625085V9.38516C0 10.1689 0.388197 10.7915 0.878937 11.2895C1.4063 11.8096 2.18269 12 2.95176 12H11.6899C11.9316 12 12.1 11.9487 12.2465 11.8462C12.3857 11.7363 12.4809 11.5532 12.4956 11.3628V11.2309C12.4663 10.916 12.2172 10.6083 11.6166 10.6083H3.99917C3.05431 10.6083 2.08015 10.8281 1.56744 9.99309C1.31841 9.5756 1.36235 9.30459 1.36235 8.68201V1.03526C1.36235 0.647058 1.36968 0.163642 0.864288 0.0244773C0.388197 -0.100039 0 0.27351 0 0.625085Z" fill="white" fill-opacity="0.3"/>
<path fill-rule="evenodd" clip-rule="evenodd" d="M8.46732 5.23958C8.3721 5.17366 8.26224 5.08577 8.15969 5.0052C7.91066 4.80744 6.24801 3.5403 6.10152 3.48171C5.80854 3.37184 5.53021 3.46706 5.34709 3.65749C5.29582 3.71609 5.24455 3.79666 5.19328 3.8699C5.13468 3.95047 5.09806 4.01639 5.03947 4.09696L3.64049 6.09654C3.494 6.2943 3.26694 6.60193 3.23032 6.83632C3.17905 7.25381 3.5526 7.61271 3.94812 7.59806C4.13123 7.59074 4.33632 7.45157 4.43153 7.32706C4.81241 6.81434 5.28117 6.07457 5.66937 5.53988L5.977 5.09309C6.08687 5.12239 7.11962 5.92076 7.23681 6.00865C7.44922 6.16979 7.63233 6.30895 7.85207 6.47009C7.96193 6.55066 8.04983 6.61658 8.15237 6.69715C8.38675 6.87294 8.41605 6.87294 8.68706 6.87294C9.06793 6.87294 9.29499 6.44812 9.4781 6.17711L11.0382 3.97245C11.2799 3.64284 11.4118 3.2693 11.0895 2.93237C10.8331 2.67601 10.4596 2.65404 10.1813 2.86645C10.0567 2.96167 9.8956 3.2107 9.79305 3.36451L8.71635 4.90265C8.66508 4.9759 8.52592 5.19563 8.46732 5.23958Z" fill="white" fill-opacity="0.3"/>
</svg>
